<svg width="19" height="19" viewBox="0 0 19 19" fill="none" xmlns="http://www.w3.org/2000/svg">
<g clip-path="url(#clip0_262_24)">
<path d="M10.5593 0.659431C10.2685 0.397735 9.89118 0.25293 9.5 0.25293C9.10882 0.25293 8.7315 0.397735 8.44075 0.659431L0 8.25626V16.4896C0 17.1615 0.266904 17.8058 0.741996 18.2809C1.21709 18.756 1.86145 19.0229 2.53333 19.0229H16.4667C17.1385 19.0229 17.7829 18.756 18.258 18.2809C18.7331 17.8058 19 17.1615 19 16.4896V8.25626L10.5593 0.659431ZM11.875 17.4372H7.125V13.4583C7.125 12.8284 7.37522 12.2243 7.82062 11.7789C8.26602 11.3335 8.87011 11.0833 9.5 11.0833C10.1299 11.0833 10.734 11.3335 11.1794 11.7789C11.6248 12.2243 11.875 12.8284 11.875 13.4583V17.4372ZM17.4167 16.4872C17.4167 16.7392 17.3166 16.9808 17.1384 17.159C16.9603 17.3371 16.7186 17.4372 16.4667 17.4372H13.4583V13.4583C13.4583 12.4085 13.0413 11.4017 12.299 10.6593C11.5566 9.91701 10.5498 9.49997 9.5 9.49997C8.45018 9.49997 7.44337 9.91701 6.70104 10.6593C5.9587 11.4017 5.54167 12.4085 5.54167 13.4583V17.4372H2.53333C2.28138 17.4372 2.03974 17.3371 1.86158 17.159C1.68342 16.9808 1.58333 16.7392 1.58333 16.4872V8.96085L9.5 1.83585L17.4167 8.96085V16.4872Z" fill="#5F615B"/>
</g>
<defs>
<clipPath id="clip0_262_24">
<rect width="19" height="19" fill="white"/>
</clipPath>
</defs>
</svg>
