<svg width="15" height="15" viewBox="0 0 15 15" fill="none" xmlns="http://www.w3.org/2000/svg">
<g clip-path="url(#clip0_334_6)">
<path d="M7.50004 7.5C7.99449 7.5 8.47784 7.35338 8.88896 7.07867C9.30008 6.80397 9.62052 6.41352 9.80973 5.95671C9.99895 5.49989 10.0485 4.99723 9.952 4.51227C9.85554 4.02732 9.61743 3.58186 9.2678 3.23223C8.91817 2.8826 8.47271 2.6445 7.98776 2.54804C7.50281 2.45157 7.00014 2.50108 6.54333 2.6903C6.08651 2.87952 5.69606 3.19995 5.42136 3.61107C5.14666 4.0222 5.00004 4.50555 5.00004 5C5.00004 5.66304 5.26343 6.29893 5.73227 6.76777C6.20111 7.23661 6.83699 7.5 7.50004 7.5ZM7.50004 3.75C7.74726 3.75 7.98894 3.82331 8.1945 3.96066C8.40006 4.09802 8.56028 4.29324 8.65489 4.52165C8.74949 4.75005 8.77425 5.00139 8.72602 5.24386C8.67779 5.48634 8.55873 5.70907 8.38392 5.88388C8.2091 6.0587 7.98637 6.17775 7.7439 6.22598C7.50142 6.27421 7.25009 6.24946 7.02168 6.15485C6.79327 6.06024 6.59805 5.90002 6.4607 5.69446C6.32335 5.4889 6.25004 5.24723 6.25004 5C6.25004 4.66848 6.38173 4.35054 6.61615 4.11612C6.85057 3.8817 7.16851 3.75 7.50004 3.75ZM12.9125 5.72313L12.4632 5.57375C12.544 4.8737 12.476 4.16447 12.2635 3.49255C12.0511 2.82064 11.699 2.20123 11.2303 1.67493C10.7617 1.14864 10.1871 0.72735 9.54424 0.438696C8.90137 0.150042 8.20474 0.000542176 7.50004 0C6.78613 0.000275606 6.08058 0.153559 5.43092 0.449522C4.78126 0.745485 4.20258 1.17725 3.73386 1.71573C3.26515 2.25422 2.91729 2.8869 2.71373 3.57117C2.51017 4.25543 2.45563 4.97538 2.55379 5.6825C1.95568 5.79402 1.40261 6.0762 0.961285 6.495C0.655768 6.78547 0.412891 7.13535 0.247584 7.52315C0.0822769 7.91094 -0.00196586 8.32845 3.48169e-05 8.75V11.2969C0.00134831 11.9727 0.221155 12.63 0.626654 13.1707C1.03215 13.7113 1.60161 14.1064 2.25004 14.2969L4.04379 14.8594C4.34507 14.9531 4.65887 15.0006 4.97441 15C5.26065 14.9996 5.54553 14.9605 5.82129 14.8838L9.43379 13.815C9.75561 13.7272 10.0951 13.7272 10.4169 13.815L11.9088 14.315C12.2765 14.4045 12.6597 14.4094 13.0295 14.3292C13.3994 14.2491 13.7462 14.086 14.0438 13.8523C14.3415 13.6186 14.5822 13.3204 14.7478 12.9802C14.9135 12.64 14.9997 12.2665 15 11.8881V8.67C14.9986 8.02338 14.7972 7.39303 14.4235 6.86534C14.0498 6.33766 13.522 5.93909 12.9125 5.72313ZM4.84879 2.35125C5.19645 2.00218 5.60962 1.7252 6.06459 1.53621C6.51956 1.34721 7.00737 1.24992 7.50004 1.24992C7.9927 1.24992 8.48051 1.34721 8.93548 1.53621C9.39045 1.7252 9.80363 2.00218 10.1513 2.35125C10.8526 3.05696 11.2469 4.01114 11.2481 5.00609C11.2494 6.00104 10.8577 6.95622 10.1582 7.66375L7.93754 9.82313C7.82163 9.93676 7.66579 10.0004 7.50347 10.0004C7.34116 10.0004 7.18531 9.93676 7.06941 9.82313L4.84879 7.67313C4.14595 6.96587 3.75148 6.00928 3.75148 5.01219C3.75148 4.0151 4.14595 3.05851 4.84879 2.35125ZM13.75 11.8881C13.7504 12.0774 13.7076 12.2643 13.6249 12.4346C13.5421 12.6048 13.4216 12.754 13.2725 12.8706C13.1317 12.9839 12.9676 13.0647 12.7919 13.1074C12.6163 13.1501 12.4334 13.1535 12.2563 13.1175L10.7907 12.625C10.2363 12.4657 9.64875 12.4623 9.09254 12.615L5.47754 13.6825C5.13021 13.7783 4.76263 13.772 4.41879 13.6644L2.61004 13.1019C2.21857 12.9887 1.87438 12.7515 1.62916 12.4261C1.38393 12.1006 1.2509 11.7044 1.25004 11.2969V8.75C1.24863 8.49736 1.29892 8.24711 1.3978 8.01463C1.49668 7.78214 1.64207 7.57234 1.82504 7.39813C2.11145 7.12516 2.4763 6.94897 2.86816 6.89438C3.1201 7.51886 3.49527 8.08619 3.97129 8.5625L6.20066 10.7206C6.5491 11.0618 7.01736 11.2529 7.50504 11.2529C7.99271 11.2529 8.46097 11.0618 8.80941 10.7206L11.0363 8.55625C11.5349 8.05565 11.9212 7.45461 12.1694 6.79313L12.505 6.90438C12.869 7.0348 13.1839 7.27435 13.4067 7.59033C13.6295 7.90632 13.7494 8.28336 13.75 8.67V11.8881Z" fill="#5F615B"/>
</g>
<defs>
<clipPath id="clip0_334_6">
<rect width="15" height="15" fill="white"/>
</clipPath>
</defs>
</svg>
